<?xml version="1.0" encoding="UTF-8"?>
<svg width="800" height="600" xmlns="http://www.w3.org/2000/svg">
  <!-- 背景 -->
  <rect width="800" height="600" fill="#f5f5f5"/>
  
  <!-- 标题 -->
  <text x="20" y="30" font-size="18" font-weight="bold" fill="#333">Floor 5</text>
  
  <!-- 房间区块 -->
  <!-- 房间5A -->
  <polygon points="20,50 193,50 193,168 20,168" fill="#e3f2fd" stroke="#666" stroke-width="2" opacity="0.7"/>
  <text x="106.5" y="109.0" font-size="12" text-anchor="middle" fill="#333">5A</text>
  <!-- 房间5B -->
  <polygon points="200,50 367,50 367,161 200,161" fill="#f3e5f5" stroke="#666" stroke-width="2" opacity="0.7"/>
  <text x="283.5" y="105.5" font-size="12" text-anchor="middle" fill="#333">5B</text>
  <!-- 房间5C -->
  <polygon points="380,50 557,50 557,176 380,176" fill="#e8f5e9" stroke="#666" stroke-width="2" opacity="0.7"/>
  <text x="468.5" y="113.0" font-size="12" text-anchor="middle" fill="#333">5C</text>
  <!-- 房间5D -->
  <polygon points="560,50 734,50 734,160 560,160" fill="#fff3e0" stroke="#666" stroke-width="2" opacity="0.7"/>
  <text x="647.0" y="105.0" font-size="12" text-anchor="middle" fill="#333">5D</text>
  <!-- 房间5E -->
  <polygon points="20,180 196,180 196,300 20,300" fill="#fce4ec" stroke="#666" stroke-width="2" opacity="0.7"/>
  <text x="108.0" y="240.0" font-size="12" text-anchor="middle" fill="#333">5E</text>
  <!-- 房间5F -->
  <polygon points="200,180 361,180 361,297 200,297" fill="#e3f2fd" stroke="#666" stroke-width="2" opacity="0.7"/>
  <text x="280.5" y="238.5" font-size="12" text-anchor="middle" fill="#333">5F</text>
  <!-- 房间5G -->
  <polygon points="380,180 542,180 542,297 380,297" fill="#f3e5f5" stroke="#666" stroke-width="2" opacity="0.7"/>
  <text x="461.0" y="238.5" font-size="12" text-anchor="middle" fill="#333">5G</text>
  <!-- 房间5H -->
  <polygon points="560,180 738,180 738,307 560,307" fill="#e8f5e9" stroke="#666" stroke-width="2" opacity="0.7"/>
  <text x="649.0" y="243.5" font-size="12" text-anchor="middle" fill="#333">5H</text>
  <!-- 房间5I -->
  <polygon points="20,310 184,310 184,436 20,436" fill="#fff3e0" stroke="#666" stroke-width="2" opacity="0.7"/>
  <text x="102.0" y="373.0" font-size="12" text-anchor="middle" fill="#333">5I</text>
  <!-- 房间5J -->
  <polygon points="200,310 378,310 378,433 200,433" fill="#fce4ec" stroke="#666" stroke-width="2" opacity="0.7"/>
  <text x="289.0" y="371.5" font-size="12" text-anchor="middle" fill="#333">5J</text>
  <!-- 房间5K -->
  <polygon points="380,310 553,310 553,430 380,430" fill="#e3f2fd" stroke="#666" stroke-width="2" opacity="0.7"/>
  <text x="466.5" y="370.0" font-size="12" text-anchor="middle" fill="#333">5K</text>
  <!-- 房间5L -->
  <polygon points="560,310 722,310 722,420 560,420" fill="#f3e5f5" stroke="#666" stroke-width="2" opacity="0.7"/>
  <text x="641.0" y="365.0" font-size="12" text-anchor="middle" fill="#333">5L</text>
</svg>