<?xml version="1.0" encoding="UTF-8"?>
<svg width="800" height="600" xmlns="http://www.w3.org/2000/svg">
  <!-- 背景 -->
  <rect width="800" height="600" fill="#f5f5f5"/>
  
  <!-- 标题 -->
  <text x="20" y="30" font-size="18" font-weight="bold" fill="#333">Floor 4</text>
  
  <!-- 房间区块 -->
  <!-- 房间4A -->
  <polygon points="20,50 180,50 180,163 20,163" fill="#e3f2fd" stroke="#666" stroke-width="2" opacity="0.7"/>
  <text x="100.0" y="106.5" font-size="12" text-anchor="middle" fill="#333">4A</text>
  <!-- 房间4B -->
  <polygon points="200,50 377,50 377,174 200,174" fill="#f3e5f5" stroke="#666" stroke-width="2" opacity="0.7"/>
  <text x="288.5" y="112.0" font-size="12" text-anchor="middle" fill="#333">4B</text>
  <!-- 房间4C -->
  <polygon points="380,50 543,50 543,176 380,176" fill="#e8f5e9" stroke="#666" stroke-width="2" opacity="0.7"/>
  <text x="461.5" y="113.0" font-size="12" text-anchor="middle" fill="#333">4C</text>
  <!-- 房间4D -->
  <polygon points="560,50 736,50 736,177 560,177" fill="#fff3e0" stroke="#666" stroke-width="2" opacity="0.7"/>
  <text x="648.0" y="113.5" font-size="12" text-anchor="middle" fill="#333">4D</text>
  <!-- 房间4E -->
  <polygon points="20,180 192,180 192,299 20,299" fill="#fce4ec" stroke="#666" stroke-width="2" opacity="0.7"/>
  <text x="106.0" y="239.5" font-size="12" text-anchor="middle" fill="#333">4E</text>
  <!-- 房间4F -->
  <polygon points="200,180 374,180 374,304 200,304" fill="#e3f2fd" stroke="#666" stroke-width="2" opacity="0.7"/>
  <text x="287.0" y="242.0" font-size="12" text-anchor="middle" fill="#333">4F</text>
  <!-- 房间4G -->
  <polygon points="380,180 547,180 547,294 380,294" fill="#f3e5f5" stroke="#666" stroke-width="2" opacity="0.7"/>
  <text x="463.5" y="237.0" font-size="12" text-anchor="middle" fill="#333">4G</text>
  <!-- 房间4H -->
  <polygon points="560,180 740,180 740,297 560,297" fill="#e8f5e9" stroke="#666" stroke-width="2" opacity="0.7"/>
  <text x="650.0" y="238.5" font-size="12" text-anchor="middle" fill="#333">4H</text>
</svg>