<?xml version="1.0" encoding="UTF-8"?>
<svg width="800" height="600" xmlns="http://www.w3.org/2000/svg">
  <!-- 背景 -->
  <rect width="800" height="600" fill="#f5f5f5"/>
  
  <!-- 标题 -->
  <text x="20" y="30" font-size="18" font-weight="bold" fill="#333">Floor 2</text>
  
  <!-- 房间区块 -->
  <!-- 房间2A -->
  <polygon points="20,50 182,50 182,161 20,161" fill="#e3f2fd" stroke="#666" stroke-width="2" opacity="0.7"/>
  <text x="101.0" y="105.5" font-size="12" text-anchor="middle" fill="#333">2A</text>
  <!-- 房间2B -->
  <polygon points="200,50 379,50 379,176 200,176" fill="#f3e5f5" stroke="#666" stroke-width="2" opacity="0.7"/>
  <text x="289.5" y="113.0" font-size="12" text-anchor="middle" fill="#333">2B</text>
  <!-- 房间2C -->
  <polygon points="380,50 543,50 543,172 380,172" fill="#e8f5e9" stroke="#666" stroke-width="2" opacity="0.7"/>
  <text x="461.5" y="111.0" font-size="12" text-anchor="middle" fill="#333">2C</text>
  <!-- 房间2D -->
  <polygon points="560,50 731,50 731,171 560,171" fill="#fff3e0" stroke="#666" stroke-width="2" opacity="0.7"/>
  <text x="645.5" y="110.5" font-size="12" text-anchor="middle" fill="#333">2D</text>
  <!-- 房间2E -->
  <polygon points="20,180 197,180 197,300 20,300" fill="#fce4ec" stroke="#666" stroke-width="2" opacity="0.7"/>
  <text x="108.5" y="240.0" font-size="12" text-anchor="middle" fill="#333">2E</text>
  <!-- 房间2F -->
  <polygon points="200,180 362,180 362,296 200,296" fill="#e3f2fd" stroke="#666" stroke-width="2" opacity="0.7"/>
  <text x="281.0" y="238.0" font-size="12" text-anchor="middle" fill="#333">2F</text>
  <!-- 房间2G -->
  <polygon points="380,180 553,180 553,291 380,291" fill="#f3e5f5" stroke="#666" stroke-width="2" opacity="0.7"/>
  <text x="466.5" y="235.5" font-size="12" text-anchor="middle" fill="#333">2G</text>
  <!-- 房间2H -->
  <polygon points="560,180 730,180 730,299 560,299" fill="#e8f5e9" stroke="#666" stroke-width="2" opacity="0.7"/>
  <text x="645.0" y="239.5" font-size="12" text-anchor="middle" fill="#333">2H</text>
  <!-- 房间2I -->
  <polygon points="20,310 199,310 199,435 20,435" fill="#fff3e0" stroke="#666" stroke-width="2" opacity="0.7"/>
  <text x="109.5" y="372.5" font-size="12" text-anchor="middle" fill="#333">2I</text>
  <!-- 房间2J -->
  <polygon points="200,310 379,310 379,434 200,434" fill="#fce4ec" stroke="#666" stroke-width="2" opacity="0.7"/>
  <text x="289.5" y="372.0" font-size="12" text-anchor="middle" fill="#333">2J</text>
  <!-- 房间2K -->
  <polygon points="380,310 551,310 551,437 380,437" fill="#e3f2fd" stroke="#666" stroke-width="2" opacity="0.7"/>
  <text x="465.5" y="373.5" font-size="12" text-anchor="middle" fill="#333">2K</text>
  <!-- 房间2L -->
  <polygon points="560,310 724,310 724,428 560,428" fill="#f3e5f5" stroke="#666" stroke-width="2" opacity="0.7"/>
  <text x="642.0" y="369.0" font-size="12" text-anchor="middle" fill="#333">2L</text>
</svg>