<?xml version="1.0" encoding="UTF-8"?>
<svg width="800" height="600" xmlns="http://www.w3.org/2000/svg">
  <!-- 背景 -->
  <rect width="800" height="600" fill="#f5f5f5"/>
  
  <!-- 标题 -->
  <text x="20" y="30" font-size="18" font-weight="bold" fill="#333">Floor 10</text>
  
  <!-- 房间区块 -->
  <!-- 房间10A -->
  <polygon points="20,50 198,50 198,168 20,168" fill="#e3f2fd" stroke="#666" stroke-width="2" opacity="0.7"/>
  <text x="109.0" y="109.0" font-size="12" text-anchor="middle" fill="#333">10A</text>
  <!-- 房间10B -->
  <polygon points="200,50 366,50 366,180 200,180" fill="#f3e5f5" stroke="#666" stroke-width="2" opacity="0.7"/>
  <text x="283.0" y="115.0" font-size="12" text-anchor="middle" fill="#333">10B</text>
  <!-- 房间10C -->
  <polygon points="380,50 556,50 556,178 380,178" fill="#e8f5e9" stroke="#666" stroke-width="2" opacity="0.7"/>
  <text x="468.0" y="114.0" font-size="12" text-anchor="middle" fill="#333">10C</text>
  <!-- 房间10D -->
  <polygon points="560,50 725,50 725,171 560,171" fill="#fff3e0" stroke="#666" stroke-width="2" opacity="0.7"/>
  <text x="642.5" y="110.5" font-size="12" text-anchor="middle" fill="#333">10D</text>
  <!-- 房间10E -->
  <polygon points="20,180 194,180 194,305 20,305" fill="#fce4ec" stroke="#666" stroke-width="2" opacity="0.7"/>
  <text x="107.0" y="242.5" font-size="12" text-anchor="middle" fill="#333">10E</text>
  <!-- 房间10F -->
  <polygon points="200,180 373,180 373,307 200,307" fill="#e3f2fd" stroke="#666" stroke-width="2" opacity="0.7"/>
  <text x="286.5" y="243.5" font-size="12" text-anchor="middle" fill="#333">10F</text>
  <!-- 房间10G -->
  <polygon points="380,180 559,180 559,310 380,310" fill="#f3e5f5" stroke="#666" stroke-width="2" opacity="0.7"/>
  <text x="469.5" y="245.0" font-size="12" text-anchor="middle" fill="#333">10G</text>
  <!-- 房间10H -->
  <polygon points="560,180 736,180 736,298 560,298" fill="#e8f5e9" stroke="#666" stroke-width="2" opacity="0.7"/>
  <text x="648.0" y="239.0" font-size="12" text-anchor="middle" fill="#333">10H</text>
  <!-- 房间10I -->
  <polygon points="20,310 194,310 194,427 20,427" fill="#fff3e0" stroke="#666" stroke-width="2" opacity="0.7"/>
  <text x="107.0" y="368.5" font-size="12" text-anchor="middle" fill="#333">10I</text>
  <!-- 房间10J -->
  <polygon points="200,310 377,310 377,439 200,439" fill="#fce4ec" stroke="#666" stroke-width="2" opacity="0.7"/>
  <text x="288.5" y="374.5" font-size="12" text-anchor="middle" fill="#333">10J</text>
</svg>