<?xml version="1.0" encoding="UTF-8"?>
<svg width="800" height="600" xmlns="http://www.w3.org/2000/svg">
  <!-- 背景 -->
  <rect width="800" height="600" fill="#f5f5f5"/>
  
  <!-- 标题 -->
  <text x="20" y="30" font-size="18" font-weight="bold" fill="#333">Floor 8</text>
  
  <!-- 房间区块 -->
  <!-- 房间8A -->
  <polygon points="20,50 195,50 195,176 20,176" fill="#e3f2fd" stroke="#666" stroke-width="2" opacity="0.7"/>
  <text x="107.5" y="113.0" font-size="12" text-anchor="middle" fill="#333">8A</text>
  <!-- 房间8B -->
  <polygon points="200,50 378,50 378,174 200,174" fill="#f3e5f5" stroke="#666" stroke-width="2" opacity="0.7"/>
  <text x="289.0" y="112.0" font-size="12" text-anchor="middle" fill="#333">8B</text>
  <!-- 房间8C -->
  <polygon points="380,50 544,50 544,178 380,178" fill="#e8f5e9" stroke="#666" stroke-width="2" opacity="0.7"/>
  <text x="462.0" y="114.0" font-size="12" text-anchor="middle" fill="#333">8C</text>
  <!-- 房间8D -->
  <polygon points="560,50 739,50 739,175 560,175" fill="#fff3e0" stroke="#666" stroke-width="2" opacity="0.7"/>
  <text x="649.5" y="112.5" font-size="12" text-anchor="middle" fill="#333">8D</text>
  <!-- 房间8E -->
  <polygon points="20,180 186,180 186,310 20,310" fill="#fce4ec" stroke="#666" stroke-width="2" opacity="0.7"/>
  <text x="103.0" y="245.0" font-size="12" text-anchor="middle" fill="#333">8E</text>
  <!-- 房间8F -->
  <polygon points="200,180 365,180 365,309 200,309" fill="#e3f2fd" stroke="#666" stroke-width="2" opacity="0.7"/>
  <text x="282.5" y="244.5" font-size="12" text-anchor="middle" fill="#333">8F</text>
  <!-- 房间8G -->
  <polygon points="380,180 545,180 545,295 380,295" fill="#f3e5f5" stroke="#666" stroke-width="2" opacity="0.7"/>
  <text x="462.5" y="237.5" font-size="12" text-anchor="middle" fill="#333">8G</text>
  <!-- 房间8H -->
  <polygon points="560,180 724,180 724,295 560,295" fill="#e8f5e9" stroke="#666" stroke-width="2" opacity="0.7"/>
  <text x="642.0" y="237.5" font-size="12" text-anchor="middle" fill="#333">8H</text>
  <!-- 房间8I -->
  <polygon points="20,310 188,310 188,420 20,420" fill="#fff3e0" stroke="#666" stroke-width="2" opacity="0.7"/>
  <text x="104.0" y="365.0" font-size="12" text-anchor="middle" fill="#333">8I</text>
  <!-- 房间8J -->
  <polygon points="200,310 374,310 374,432 200,432" fill="#fce4ec" stroke="#666" stroke-width="2" opacity="0.7"/>
  <text x="287.0" y="371.0" font-size="12" text-anchor="middle" fill="#333">8J</text>
  <!-- 房间8K -->
  <polygon points="380,310 540,310 540,420 380,420" fill="#e3f2fd" stroke="#666" stroke-width="2" opacity="0.7"/>
  <text x="460.0" y="365.0" font-size="12" text-anchor="middle" fill="#333">8K</text>
  <!-- 房间8L -->
  <polygon points="560,310 730,310 730,430 560,430" fill="#f3e5f5" stroke="#666" stroke-width="2" opacity="0.7"/>
  <text x="645.0" y="370.0" font-size="12" text-anchor="middle" fill="#333">8L</text>
  <!-- 房间8M -->
  <polygon points="20,440 182,440 182,551 20,551" fill="#e8f5e9" stroke="#666" stroke-width="2" opacity="0.7"/>
  <text x="101.0" y="495.5" font-size="12" text-anchor="middle" fill="#333">8M</text>
  <!-- 房间8N -->
  <polygon points="200,440 371,440 371,567 200,567" fill="#fff3e0" stroke="#666" stroke-width="2" opacity="0.7"/>
  <text x="285.5" y="503.5" font-size="12" text-anchor="middle" fill="#333">8N</text>
  <!-- 房间8O -->
  <polygon points="380,440 554,440 554,556 380,556" fill="#fce4ec" stroke="#666" stroke-width="2" opacity="0.7"/>
  <text x="467.0" y="498.0" font-size="12" text-anchor="middle" fill="#333">8O</text>
</svg>