<?xml version="1.0" encoding="UTF-8"?>
<svg width="800" height="600" xmlns="http://www.w3.org/2000/svg">
  <!-- 背景 -->
  <rect width="800" height="600" fill="#f5f5f5"/>
  
  <!-- 标题 -->
  <text x="20" y="30" font-size="18" font-weight="bold" fill="#333">Floor 7</text>
  
  <!-- 房间区块 -->
  <!-- 房间7A -->
  <polygon points="20,50 186,50 186,178 20,178" fill="#e3f2fd" stroke="#666" stroke-width="2" opacity="0.7"/>
  <text x="103.0" y="114.0" font-size="12" text-anchor="middle" fill="#333">7A</text>
  <!-- 房间7B -->
  <polygon points="200,50 362,50 362,171 200,171" fill="#f3e5f5" stroke="#666" stroke-width="2" opacity="0.7"/>
  <text x="281.0" y="110.5" font-size="12" text-anchor="middle" fill="#333">7B</text>
  <!-- 房间7C -->
  <polygon points="380,50 545,50 545,169 380,169" fill="#e8f5e9" stroke="#666" stroke-width="2" opacity="0.7"/>
  <text x="462.5" y="109.5" font-size="12" text-anchor="middle" fill="#333">7C</text>
  <!-- 房间7D -->
  <polygon points="560,50 732,50 732,160 560,160" fill="#fff3e0" stroke="#666" stroke-width="2" opacity="0.7"/>
  <text x="646.0" y="105.0" font-size="12" text-anchor="middle" fill="#333">7D</text>
  <!-- 房间7E -->
  <polygon points="20,180 180,180 180,301 20,301" fill="#fce4ec" stroke="#666" stroke-width="2" opacity="0.7"/>
  <text x="100.0" y="240.5" font-size="12" text-anchor="middle" fill="#333">7E</text>
  <!-- 房间7F -->
  <polygon points="200,180 366,180 366,307 200,307" fill="#e3f2fd" stroke="#666" stroke-width="2" opacity="0.7"/>
  <text x="283.0" y="243.5" font-size="12" text-anchor="middle" fill="#333">7F</text>
  <!-- 房间7G -->
  <polygon points="380,180 545,180 545,306 380,306" fill="#f3e5f5" stroke="#666" stroke-width="2" opacity="0.7"/>
  <text x="462.5" y="243.0" font-size="12" text-anchor="middle" fill="#333">7G</text>
  <!-- 房间7H -->
  <polygon points="560,180 739,180 739,292 560,292" fill="#e8f5e9" stroke="#666" stroke-width="2" opacity="0.7"/>
  <text x="649.5" y="236.0" font-size="12" text-anchor="middle" fill="#333">7H</text>
  <!-- 房间7I -->
  <polygon points="20,310 182,310 182,439 20,439" fill="#fff3e0" stroke="#666" stroke-width="2" opacity="0.7"/>
  <text x="101.0" y="374.5" font-size="12" text-anchor="middle" fill="#333">7I</text>
  <!-- 房间7J -->
  <polygon points="200,310 374,310 374,437 200,437" fill="#fce4ec" stroke="#666" stroke-width="2" opacity="0.7"/>
  <text x="287.0" y="373.5" font-size="12" text-anchor="middle" fill="#333">7J</text>
</svg>